{"title":"De battre mon coeur s,est arrÃƒÂªtÃƒÂ©.2005.Xvid.Swe_Sub.avi","uid":5448376,"size":1473807688,"categoryP":"video","categoryS":"movies","magnet":"?xt=urn:btih:18f70d3d5bf8350a9f047a941bc9c258e7ab8bf1&amp;dn=De+battre+mon+coeur+s%2Cest+arr%C3%83%C2%AAt%C3%83%C2%A9.2005.Xvid.Swe_Sub.avi&amp;tr=udp%3A%2F%2Ftracker.openbittorrent.com%3A80&amp;tr=udp%3A%2F%2Fopen.demonii.com%3A1337&amp;tr=udp%3A%2F%2Ftracker.coppersurfer.tk%3A6969&amp;tr=udp%3A%2F%2Fexodus.desync.com%3A6969","seeders":0,"leechers":1,"uploader":"Zen_Bud","files":-1,"time":1269094404,"description":"Mitt hjÃƒÂ¤rtas fÃƒÂ¶rlorade slag aka The Beat That My Heart Skipped\n\n\nGeneral\nComplete name                    : De battre mon coeur s'est arrÃƒÂªtÃƒÂ©.Swe_Sub.avi\n\nFormat                           : AVI\nFile size                        : 1.37 GiB\nDuration                         : 1h 42mn\nOverall bit rate                 : 1 917 Kbps\n\nVideo\nID                               : 0\nFormat                           : MPEG-4 Visual\nCodec ID                         : XVID\nDuration                         : 1h 42mn\nBit rate                         : 1 776 Kbps\nWidth                            : 700 pixels\nHeight                           : 552 pixels\nDisplay aspect ratio             : 16:9\nResolution                       : 8 bits\nColorimetry                      : 4:2:0\nScan type                        : Progressive\nBits/(Pixel*Frame)               : 0.184\nStream size                      : 1.27 GiB (93%)\nWriting library                  : XviD 1.1.2 (UTC 2006-11-01)\n\nAudio\nID                               : 1\nFormat                           : MPEG Audio\nFormat version                   : Version 1\nFormat profile                   : Layer 3\nMode                             : Joint stereo\nFormat_Settings_ModeExtension    : MS Stereo\nCodec ID                         : 55\nCodec ID/Hint                    : MP3\nDuration                         : 1h 42mn\nBit rate mode                    : Constant\nBit rate                         : 128 Kbps\nChannel(s)                       : 2 channels\nSampling rate                    : 48.0 KHz\nStream size                      : 93.9 MiB (7%)\nAlignment                        : Split accross interleaves)\nWriting library                  : LAME3.98\n\n","torrent":{"xt":"urn:btih:18f70d3d5bf8350a9f047a941bc9c258e7ab8bf1","amp;dn":"De+battre+mon+coeur+s%2Cest+arr%C3%83%C2%AAt%C3%83%C2%A9.2005.Xvid.Swe_Sub.avi","amp;tr":["udp%3A%2F%2Ftracker.openbittorrent.com%3A80","udp%3A%2F%2Fopen.demonii.com%3A1337","udp%3A%2F%2Ftracker.coppersurfer.tk%3A6969","udp%3A%2F%2Fexodus.desync.com%3A6969"],"infoHash":"18f70d3d5bf8350a9f047a941bc9c258e7ab8bf1","infoHashBuffer":{"type":"Buffer","data":[24,247,13,61,91,248,53,10,159,4,122,148,27,201,194,88,231,171,139,241]},"announce":[],"urlList":[]}}